# xmcd
#
# Track frame offsets:
#	183
#	15323
#	31448
#	51730
#	72108
#	101338
#	116065
#	134458
#	150370
#	170340
#	198618
#	225253
#
# Disc length: 3221 seconds
#
# Revision: 2
# Processed by: cddbd v1.4PL0 Copyright (c) Steve Scherf et al.
# Submitted via: audiograbber 1.81.03
#
DISCID=970c930c
DTITLE=Blues - Today's Blues - Vol 4
DYEAR=1986
DGENRE=Blues
TTITLE0=Lonnie Brooks - Messed Up Again
TTITLE1=Johnny Winter - Boot Hill
TTITLE2=Stevie Ray Vaughan - If You Have To Know - Lonnie Mack
TTITLE3=Son Seals - Out Of My Way
TTITLE4=Albert Collins, Robert Cray, Johnny Copeland - Blackjack
TTITLE5=Lonnie Brooks - Wrong Number
TTITLE6=Albert Collins and Johnny Copeland - Albert's Alley
TTITLE7=Koko Taylor - Beer Bottle Boogie
TTITLE8=Big Twist and The Mellow Fellows - I Want Your Love
TTITLE9=Johnny Winter - My Time After A While
TTITLE10=Roy Buchanan - When A Guitar Plays The Blues
TTITLE11=James Cotton - Diggin' My Potatoes
EXTD=
EXTT0=
EXTT1=
EXTT2=
EXTT3=
EXTT4=
EXTT5=
EXTT6=
EXTT7=
EXTT8=
EXTT9=
EXTT10=
EXTT11=
PLAYORDER=
